<svg fill="none" height="44" width="44" xmlns="http://www.w3.org/2000/svg"><path d="m4.33932 36c.43546-.2613.7664-.6358.99284-1.0625.43546-.8448.00871-2.186-.34836-3.0047-.1829-.4267-.70545-.6706-1.23671-.5748l-.79253.1306c-.68803.122-1.1409.749-.87963 1.2977.11322.2526.30482.4877.59223.6445 1.58507.8796 3.21368-.1219 4.02363-.7751.32224-.2613.45288-.6445.33966-1.0016l-1.01026-2.935c-.15677-.4528-.67932-.7315-1.2367-.6445l-.21773.0349c-.72287.1132-1.15832.7751-.88834 1.3412.16547.3397.40062.6706.7577.8535 1.09735.5661 4.99036-.1219 5.25163-1.4457.20902-1.0364.58355-2.8305-.83608-3.1963-.44417-.1132-.86221-.0958-1.22799-.0174-.68803.148-1.02769.8274-.73157 1.3586l.13934.2439c.22644.4093.77512.6096 1.30638.479l2.30797-.601c.6967-.1828.958-1.916.6183-2.4559l-1.6286-2.6041c-.25257-.4006-.80125-.5748-1.31509-.4267l-.67932.2003c-.72286.209-1.0451.9667-.60964 1.4805.22644.27.52255.5226.91447.6706 1.19315.4529 2.79568-.9841 3.88428-1.6547 1.6373-1.019-1.94214-4.3372-3.09175-4.79-.60093-.2352-1.36734-.0175-1.93344.2177-.479.2003-.74899.6445-.65318 1.0799.12192.5226.72286.8448 1.3325.7142l2.88277-.6271c.6532-.1393 1.0364-.7228.836-1.2541-.5748-1.5328-1.85501-4.2675-3.56201-3.9801-1.87247.3222-.51384 2.0641.61836 2.2818.12192.0261.20902.0436.26127.0523.68803.1132 2.14248.2612 2.95238-.27 2.1251-1.3935.4442-3.0308-.5225-4.3894-.331-.4616-.98416-.4965-1.55896-.331-.73157.1481-1.13219.8535-.79254 1.4109.39192.6358 1.09736 1.2367 2.3515.8796 1.0712-.3048 1.8463-2.0989 2.0815-2.7172.0522-.1394.0696-.2787.0435-.4268-.0784-.44416-.2961-1.47185-.7403-2.186m22.4.90527c.6358 3.03083-2.125 3.21373-2.1337 4.20653-.0087 1.5677 4.2675-.7664 4.8858.3484.8187 1.4805-4.6071 2.3863-3.9278 3.7275.6009 1.1932 3.7362-.7142 4.1717.3832.6096 1.5502-4.8336 1.7505-4.4591 3.3008.3309 1.3847 4.581-1.2106 5.0426.1655.5138 1.5328-4.7639 2.1947-4.2153 3.4662.54 1.2454 4.5898-.7664 4.7988.5051.2003 1.2106-3.3356 1.8899-2.996 3.0744.3658 1.3064 4.5637-1.1932 4.9033 0 .3048 1.0625-3.9714 2.0031-3.414 3.205.6967 1.4979 4.1456-1.6722 4.3023-.1481.122 1.1844-2.3253 2.247-1.2367 4.3372m-18.3763-27.06733c-.6184.52255-1.2541 1.21057-1.3761 2.09023-.1742 1.167.4094 1.8637 1.4109 2.0902.6271.1393 1.4719.2874 2.0902.0174.3919-.1742 1.0887-.8361.2961-.9929-.8535-.1654-2.665.9232-3.4227 1.3325 0 0-1.437 1.0626-.9754 1.8203.2264.3309.6619.4093 1.0538.4616.9754.1306 1.4022.8796 2.3863.9493.4006.0348 2.5518-.3223 1.3674-1.019-.4355-.2613-2.2035-.1307-3.1528.209-.8273.2961-1.9682 1.498-1.9682 1.916.0958.6097.7664.9145 1.3412 1.0887 1.3238.4006 2.4734 1.376 3.8756 1.3238.5051-.0175 1.2105-.9232.6444-1.1409-.2438-.0958-.627-.4965-.8883-.479-.749.0522-1.6199.4528-2.1686.9754-1.0277.9667-3.0134 1.2454-1.3412 2.6563.0348.0348.0784.0609.1132.0958 1.0016.6009 2.2122.8448 3.3269.8361.3397 0 .7403 0 1.0538-.1481.3136-.1393.5487-.5748.0958-.7229-.3135-.0958-1.1234-.148-1.4457-.0958-.6706.1046-.9928.4094-1.6373.6358-1.0799.3832-2.6824 1.0887-2.8566 2.4734-.1219.9406 1.1322 1.4196 2.0466 1.4806.601.0435 2.1164.749 2.6041.2264.3832-.4093-.2613-1.019-.6619-1.0015-.6532.0261-1.3412.7402-1.8986 1.0451-.81.4441-1.916 2.064-.0784 2.6388 1.4893.6619 1.3412.8187 2.9437.9232.2264-.0087 1.2454-.5574 1.1583-.9406-.1829-.8012-3.0308.2178-3.6143.8361-2.0815 2.2121-.5399 2.395.7751 2.7347.8361.1567 1.6635.3832 2.517.4442.5138.0348.1393-.0088.6445-.0784.5312-.0784.8883-.54.2264-.7839-1.1844-.4354-1.6809.6358-2.6824 1.2367-.6445.3745-1.5328 2.0293.0087 2.4299" stroke="#111" stroke-linecap="round" stroke-miterlimit="10"/></svg>
