<svg fill="none" height="44" width="44" xmlns="http://www.w3.org/2000/svg"><path d="m9.29636 8c1.61474 1.35781 2.90824 3.6881 2.93584 5.8808.0367 2.789-1.7523 5.3945-4.47713 5.8716-2.84405.4954-5.91746-2.0184-5.06425-5.2111.57799-2.1651 3.14681-2.9083 5.03673-2.3853 2.34865.6514 3.69725 3.0184 4.37615 5.2844 1.4679 4.8808-.5596 11.4863-6.20185 12.046-1.4312.1467-2.96332-.3211-3.9358-1.4129-.972486-1.0917-1.293589-2.844-.57799-4.1468.63303-1.1468 1.95414-1.7798 3.22938-1.7156 1.26606.0642 2.45873.7615 3.31194 1.7339 3.17432 3.5964 1.1101 9.2203-2.31194 11.7799m17.23866-.1101c-1.6331-1.8349-3.1377-3.7982-3.5046-6.0735-.2844-1.7706.3853-3.7431 2.1193-4.6147 1.5229-.7614 3.3119-.8715 4.8807-.1835 1.5321.6698 2.1652 2.5046 1.3945 4.0092-.5046.9725-1.4862 1.6422-2.5413 1.8533-1.3119.266-2.7431-.1652-3.8165-.9267-1.2294-.8715-1.7707-2.1101-2.4129-3.477-1.1101-2.3762-1.6147-5.2386-.8257-7.7891.6698-2.1376 2.7432-4.1835 4.9634-4.5872 1.5229-.2752 3.211.2294 4.156 1.4588.9449 1.2293.9357 3.1651-.1744 4.2385-.8624.8349-2.1926 1.0367-3.367.7982-.9449-.1835-1.844-.6239-2.5321-1.2936-.9725-.9358-1.4862-2.2844-1.5963-3.633-.1468-1.7432.2752-3.6147 1.0642-5.1744.4129-.80732.9266-1.54127 1.5597-2.18348m11.7248.57813c-.4129 1.85325-.3853 4.06425.3578 5.59635.7156 1.4954 2.2844 2.945 3.9725 3.0551 2.1009.1376 4.0826-2.1101 2.3303-4.4679-1.3303-1.789-3.8074-1.1377-5.2478-.0734-2.5413 1.8624-4.3394 5.7064-3.0734 8.9817.7615 1.9633 2.5872 3.3853 4.5046 3.7981 1.6698.3578 4.2661-.4862 4.3946-2.4312.1009-1.5871-1.156-2.8807-2.5964-3.1101-1.844-.2935-3.5138 1.0092-4.3028 2.7248-1.1376 2.4404-.5688 5.367 1.1101 7.4221 1.6789 2.055 5.0551 3.5872 7.2111 1.3027.5596-.5963.8899-1.4403.7614-2.2477-.477-2.844-4.0275-1.6147-5.2752-.1743-1.3119 1.5046-1.6881 4.8349-.8349 7.0092" stroke="#000" stroke-linecap="round" stroke-miterlimit="10"/></svg>
