<svg width="44" height="44" fill="none" xmlns="http://www.w3.org/2000/svg"><path d="M20.4118 35.9998c1.3569-1.1368 3.649-3.3281 3.4198-5.2534-.3209-2.6863-3.6123-2.6404-3.7407-5.1342-.1283-2.5396 3.7132-3.4198 3.7407-6.1611.0275-2.5304-2.8514-3.2272-3.0439-5.8401-.165-2.2279 1.0819-4.2816 2.127-5.52848M5 34.8721c1.5586-.8343 5.0334-2.5304 5.3084-4.4466.4309-2.9888-3.41057-3.8048-3.02551-6.2711.39424-2.5121 4.08901-3.0622 4.68501-5.7393.5409-2.4662-1.962-2.8421-1.6228-5.4367.2842-2.2188 1.9253-3.97906 3.2089-4.9784M37.3639 34.8538c.9535-1.4669 1.6319-3.6857.8343-5.3818-1.1094-2.3654-3.7773-1.8245-4.6483-4.0707-.8802-2.292 1.9253-4.0615 1.1368-6.5828-.7334-2.3195-3.1722-2.0628-4.144-4.3916-.8251-1.9803-.2475-4.2632.3851-5.73012" stroke="#000" stroke-miterlimit="10" stroke-linecap="round"/></svg>
